<?xml version="1.0" encoding="utf-8"?>
<svg viewBox="0 0 500 500" xmlns="http://www.w3.org/2000/svg">
  <g transform="matrix(0.025684, 0, 0, -0.025684, 85.186371, 370.349365)" fill="#000000" stroke="none" style="">
    <g transform="matrix(1, 0, 0, 1, 449.658112, 14.805806)">
      <path d="M 613.933 10515.663 C -48.91 10431.607 -863.054 10008.924 -1261.72 9543.013 C -1468.259 9302.852 -1653.182 8985.841 -1718.025 8764.893 C -1732.435 8709.656 -1730.033 8709.656 -1641.174 8786.507 C -1225.696 9134.74 -610.886 9497.382 27.941 9771.165 C 443.419 9948.884 592.318 9975.302 1178.31 9972.9 C 1781.113 9972.9 1958.832 9944.081 2679.313 9737.543 C 4125.079 9322.065 4694.26 9213.993 5453.167 9213.993 C 5983.921 9211.591 6101.6 9230.804 7050.234 9463.76 C 7420.081 9555.021 7847.567 9653.487 7998.868 9679.904 C 8402.338 9751.953 8839.43 9763.961 9163.646 9713.527 C 9660.779 9636.676 10340.433 9506.989 10568.585 9446.949 C 10755.91 9396.515 11740.568 9062.692 11764.584 9041.078 C 11769.388 9036.274 11711.749 8976.234 11637.299 8906.588 C 11562.85 8834.54 11406.745 8671.23 11293.87 8541.544 C 11178.593 8411.857 11012.882 8246.146 10926.424 8174.098 C 10486.931 7816.259 9881.726 7556.886 9091.598 7391.175 C 8858.643 7343.143 8760.177 7335.938 8275.053 7335.938 C 7888.394 7335.938 7624.218 7350.348 7398.467 7379.167 C 6973.383 7434.404 6269.712 7537.673 6209.672 7554.484 C 6168.845 7566.492 6171.247 7559.287 6221.68 7516.058 C 6255.303 7487.239 6380.186 7398.38 6497.865 7319.127 C 7155.905 6879.633 7780.322 6716.324 8611.277 6773.963 C 9473.453 6831.601 10486.931 7165.424 11072.922 7585.705 C 11310.681 7756.219 11469.187 7905.118 11819.821 8284.572 C 12038.367 8522.331 12103.211 8577.568 12276.126 8668.829 C 12386.6 8728.869 12547.508 8834.54 12633.965 8906.588 C 12720.423 8978.636 12794.873 9038.676 12797.275 9043.479 C 12816.487 9055.487 12607.548 9314.86 12545.106 9360.491 C 12509.082 9386.909 12364.986 9442.146 12225.693 9485.374 C 12086.4 9528.603 11742.97 9641.479 11464.384 9739.945 C 10827.959 9960.892 10537.364 10037.744 9944.168 10143.414 C 8647.301 10373.968 8371.117 10364.362 7004.604 10023.334 C 6310.54 9850.418 6051.166 9799.985 5743.761 9773.567 C 5092.926 9715.929 4307.601 9848.017 2931.482 10246.683 C 2283.048 10434.008 2042.888 10484.442 1680.246 10518.065 C 1358.43 10546.884 851.692 10544.482 613.933 10515.663 Z" style="" transform="matrix(1.0717555284500122, 0, 0, 1.0717555284500122, 137.77210998535156, 150.95475769042605)"/>
      <path d="M 813.266 8860.957 C 645.154 8810.523 417.001 8601.584 344.953 8433.471 C 265.7 8250.95 318.536 7861.89 417.001 7881.102 C 433.813 7883.504 489.049 7871.496 541.885 7852.283 C 594.72 7835.472 705.194 7821.062 786.848 7821.062 C 1118.27 7823.464 1274.374 8013.191 1274.374 8416.66 C 1271.973 8769.696 1089.451 8945.013 813.266 8860.957 Z M 1022.206 8726.467 C 1137.483 8680.837 1183.113 8315.793 1094.254 8133.271 C 1031.812 7998.781 957.362 7960.355 770.037 7960.355 C 529.877 7960.355 421.805 8044.412 481.845 8190.909 C 525.074 8294.178 589.917 8320.596 649.957 8260.556 C 724.407 8186.106 712.399 8102.05 621.138 8066.026 L 541.885 8034.805 L 637.949 8025.199 C 712.399 8017.994 741.218 8027.6 774.84 8068.428 C 830.077 8138.074 830.077 8229.335 770.037 8325.399 C 726.808 8399.849 688.383 8419.062 553.893 8433.471 C 493.853 8440.676 496.254 8440.676 585.114 8541.544 C 722.005 8692.845 904.527 8769.696 1022.206 8726.467 Z" style="stroke-width: 0.0284054; vector-effect: non-scaling-stroke;" transform="matrix(1.0717555284500122, 0, 0, 1.0717555284500122, 137.77210998535156, 150.95475769042605)"/>
      <path d="M -1540.307 7777.833 C -1811.688 7734.604 -2025.431 7480.034 -1864.523 7391.175 C -1830.901 7371.962 -1718.025 7359.954 -1554.716 7359.954 L -1295.343 7359.954 L -1271.327 7427.199 L -1249.712 7494.444 L -1199.279 7444.01 C -1141.64 7386.372 -1129.632 7383.97 -1059.986 7434.404 C -997.544 7477.633 -995.142 7511.255 -1045.576 7621.729 C -1108.018 7751.416 -1307.351 7813.857 -1540.307 7777.833 Z" style="stroke-width: 0.0284054; vector-effect: non-scaling-stroke;" transform="matrix(1.0717555284500122, 0, 0, 1.0717555284500122, 137.77210998535156, 150.95475769042605)"/>
      <path d="M 830.077 7405.585 C 126.407 7383.97 -461.986 7316.725 -534.034 7251.882 C -572.46 7218.259 -219.424 7203.85 97.588 7225.464 C 1002.993 7292.709 1716.27 7280.701 2638.486 7189.44 C 2842.622 7170.227 3013.136 7158.219 3020.341 7163.023 C 3039.554 7184.637 2777.779 7297.512 2655.297 7321.528 C 2415.137 7369.561 1307.997 7419.994 830.077 7405.585 Z" style="stroke-width: 0.0284054; vector-effect: non-scaling-stroke;" transform="matrix(1.0717555284500122, 0, 0, 1.0717555284500122, 137.77210998535156, 150.95475769042605)"/>
      <path d="M -10.484 6978.099 C -22.492 6970.894 -75.328 6961.288 -128.163 6951.681 C -178.597 6944.476 -214.621 6930.067 -207.416 6922.862 C -183.4 6898.846 -0.878 6867.625 325.74 6831.601 C 875.708 6771.561 1132.68 6709.119 1790.719 6473.762 C 1922.808 6425.73 2069.306 6387.304 2114.936 6387.304 C 2196.591 6387.304 2196.591 6389.706 2033.281 6485.77 C 1713.868 6670.694 1303.194 6812.388 813.266 6901.248 C 515.467 6956.484 44.753 6999.713 -10.484 6978.099 Z" style="stroke-width: 0.0284054; vector-effect: non-scaling-stroke;" transform="matrix(1.0717555284500122, 0, 0, 1.0717555284500122, 137.77210998535156, 150.95475769042605)"/>
      <path d="M 5554.034 6858.019 C 5097.729 6610.653 4903.199 6288.838 4932.019 5825.329 C 4958.436 5369.024 5155.368 4991.972 5955.102 3853.611 C 6524.283 3049.073 6826.885 2424.656 7004.604 1692.167 C 7079.053 1384.761 7158.306 637.862 7158.306 243.999 C 7158.306 -113.84 7182.322 -217.109 7280.788 -298.764 C 7429.688 -426.049 7573.784 -404.435 7782.724 -226.716 C 7910.009 -118.644 7917.213 -116.242 8032.49 -130.652 C 8099.735 -137.856 8212.611 -173.88 8287.061 -209.905 C 8445.566 -291.559 8500.803 -380.418 8577.655 -678.217 C 8640.096 -925.583 8628.088 -1000.033 8520.016 -1045.663 C 8476.787 -1062.474 8102.137 -1110.506 7686.659 -1153.735 C 6961.375 -1228.185 6867.712 -1232.988 5477.183 -1252.201 C 4677.448 -1264.209 3959.369 -1281.02 3880.116 -1290.627 C 3692.79 -1317.044 3697.594 -1319.446 4372.445 -1545.197 C 5071.312 -1780.554 5200.998 -1802.169 5981.52 -1802.169 C 6668.379 -1802.169 7047.832 -1780.554 7902.804 -1694.096 C 8553.639 -1626.851 8743.365 -1583.623 8913.879 -1456.337 C 9168.45 -1266.611 9235.694 -896.764 9094 -445.262 C 8964.313 -24.981 8825.02 157.541 8541.631 289.629 C 8308.675 397.702 8111.743 438.529 7898.001 424.119 L 7710.675 412.111 L 7710.675 510.577 C 7710.675 681.091 7619.414 1495.235 7578.587 1694.568 C 7489.728 2129.259 7194.33 2909.78 6966.178 3315.651 C 6836.491 3548.607 6548.299 3985.699 6168.845 4526.06 C 6048.765 4698.976 5880.652 4951.144 5794.195 5090.437 C 5297.062 5906.983 5263.44 6245.609 5628.484 6778.766 C 5690.926 6867.625 5734.155 6939.673 5722.147 6939.673 C 5712.54 6939.673 5638.09 6901.248 5554.034 6858.019 Z" style="stroke-width: 0.0284054; vector-effect: non-scaling-stroke;" transform="matrix(1.0717555284500122, 0, 0, 1.0717555284500122, 137.77210998535156, 150.95475769042605)"/>
      <path d="M -718.958 5914.188 C -718.958 5909.385 -637.303 5818.124 -536.436 5712.453 C -341.906 5508.317 -207.416 5265.755 -94.541 4907.916 C -39.304 4737.402 -39.304 4732.598 -80.131 4566.888 C -101.745 4473.225 -164.187 4285.9 -219.424 4149.008 C -471.592 3507.78 -1033.568 1725.789 -1141.64 1223.854 C -1201.68 952.472 -1201.68 479.356 -1144.042 265.613 C -1019.158 -195.495 -791.006 -433.254 -478.797 -433.254 C -385.135 -433.254 -219.424 -363.607 -173.793 -308.37 C -147.376 -277.149 -159.384 -274.748 -269.858 -284.354 C -370.725 -291.559 -409.151 -284.354 -476.396 -236.322 C -630.098 -133.053 -658.918 -53.8 -668.524 306.441 C -682.934 880.424 -670.926 933.259 -113.753 2760.881 C -48.91 2979.427 92.785 3390.101 198.455 3673.491 C 513.066 4516.454 539.483 4708.582 390.584 5027.996 C 263.299 5296.976 -46.508 5640.405 -255.448 5748.477 C -351.512 5796.509 -718.958 5928.598 -718.958 5914.188 Z" style="stroke-width: 0.0284054; vector-effect: non-scaling-stroke;" transform="matrix(1.0717555284500122, 0, 0, 1.0717555284500122, 137.77210998535156, 150.95475769042605)"/>
      <path d="M 1586.583 2122.054 C 880.511 1932.327 316.134 1154.207 313.732 371.284 C 313.732 143.131 364.166 -39.391 505.861 -320.378 C 580.31 -471.679 611.531 -558.137 594.72 -565.342 C 577.909 -567.744 436.214 -601.366 277.708 -637.39 C -94.541 -723.848 -500.412 -851.133 -678.13 -942.394 C -848.644 -1026.45 -1019.158 -1180.153 -1081.6 -1302.635 C -1232.901 -1600.434 -1019.158 -1972.682 -639.705 -2071.148 C -435.568 -2123.984 433.813 -2109.574 722.005 -2049.534 C 1151.892 -1958.273 2400.727 -1622.048 2371.908 -1607.639 C 2355.096 -1598.032 2223.008 -1566.811 2078.912 -1537.992 C 1697.057 -1461.141 1161.499 -1446.731 731.612 -1501.968 C 335.347 -1554.803 -459.584 -1566.811 -505.215 -1521.181 C -570.058 -1456.337 -32.099 -1266.611 604.327 -1132.121 C 796.455 -1093.695 986.182 -1048.065 1024.607 -1033.655 C 1111.065 -1000.033 1195.121 -923.181 1240.752 -836.723 C 1305.595 -709.438 1283.981 -622.981 1079.844 -219.511 C 911.732 109.509 882.913 186.36 873.306 316.047 C 839.684 712.312 1183.113 1461.612 1569.772 1843.468 C 1699.458 1975.556 1891.587 2112.447 1939.619 2112.447 C 1954.028 2112.447 1975.643 2124.455 1982.848 2136.463 C 2004.462 2172.488 1740.286 2162.881 1586.583 2122.054 Z" style="stroke-width: 0.0284054; vector-effect: non-scaling-stroke;" transform="matrix(1.0717555284500122, 0, 0, 1.0717555284500122, 137.77210998535156, 150.95475769042605)"/>
    </g>
  </g>
</svg>